<svg width="220" height="156" viewBox="0 0 220 156" fill="none" xmlns="http://www.w3.org/2000/svg">
<ellipse cx="110" cy="109.5" rx="110" ry="46.5" fill="url(#paint0_linear_220_2254)"/>
<g filter="url(#filter0_i_220_2254)">
<ellipse cx="173.5" cy="120.5" rx="11.5" ry="10.5" transform="rotate(8.53747 173.5 120.5)" fill="url(#paint1_linear_220_2254)"/>
</g>
<g filter="url(#filter1_i_220_2254)">
<ellipse cx="97" cy="110.5" rx="8" ry="7.5" fill="url(#paint2_linear_220_2254)"/>
</g>
<g filter="url(#filter2_i_220_2254)">
<ellipse cx="40.6107" cy="118.77" rx="12.7946" ry="13.7302" transform="rotate(8.14386 40.6107 118.77)" fill="url(#paint3_linear_220_2254)"/>
</g>
<g filter="url(#filter3_i_220_2254)">
<ellipse cx="131.5" cy="131" rx="4.5" ry="5" fill="url(#paint4_linear_220_2254)"/>
</g>
<rect x="50.832" y="24" width="10.7558" height="36.5325" rx="5.37791" transform="rotate(45 50.832 24)" fill="url(#paint5_linear_220_2254)"/>
<rect x="189.832" width="10.7558" height="42.7833" rx="5.37791" transform="rotate(45 189.832 0)" fill="url(#paint6_linear_220_2254)"/>
<rect x="182.252" y="50" width="10.7558" height="42.7833" rx="5.37791" transform="rotate(45 182.252 50)" fill="url(#paint7_linear_220_2254)"/>
<rect x="33.1099" y="84.6497" width="0.829396" height="3.96369" rx="0.414698" transform="rotate(-15 33.1099 84.6497)" fill="#D2D9E7"/>
<path d="M26.9853 82.4319L30.6395 73.5111L33.9814 85.9831L26.9853 82.4319Z" fill="url(#paint8_linear_220_2254)"/>
<path d="M38.2617 79.4097L30.6367 73.5111L33.9786 85.9832L38.2617 79.4097Z" fill="url(#paint9_linear_220_2254)"/>
<rect x="21" y="86.397" width="1.53405" height="7.33123" rx="0.767025" transform="rotate(-15 21 86.397)" fill="#D2D9E7"/>
<path d="M9.67221 82.2949L16.431 65.7949L22.6121 88.8632L9.67221 82.2949Z" fill="url(#paint10_linear_220_2254)"/>
<path d="M30.5283 76.7051L16.425 65.795L22.6061 88.8633L30.5283 76.7051Z" fill="url(#paint11_linear_220_2254)"/>
<rect x="55.9668" y="76.8584" width="0.68058" height="3.2525" rx="0.34029" transform="rotate(-15 55.9668 76.8584)" fill="#D2D9E7"/>
<path d="M50.9406 75.0385L53.9391 67.7183L56.6814 77.9525L50.9406 75.0385Z" fill="url(#paint12_linear_220_2254)"/>
<path d="M60.1936 72.5587L53.9367 67.7185L56.679 77.9528L60.1936 72.5587Z" fill="url(#paint13_linear_220_2254)"/>
<rect width="0.829409" height="3.96375" rx="0.414705" transform="matrix(-0.965926 -0.258819 -0.258819 0.965926 164.508 89.6499)" fill="#D2D9E7"/>
<path d="M170.633 87.4321L166.979 78.5111L163.637 90.9834L170.633 87.4321Z" fill="url(#paint14_linear_220_2254)"/>
<path d="M159.356 84.4099L166.982 78.5112L163.64 90.9834L159.356 84.4099Z" fill="url(#paint15_linear_220_2254)"/>
<rect width="1.59663" height="7.63032" rx="0.798317" transform="matrix(-0.866025 -0.5 -0.5 0.866025 183.274 90.9052)" fill="#D2D9E7"/>
<path d="M195.767 89.8328L193.417 71.4242L180.989 92.9504L195.767 89.8328Z" fill="url(#paint16_linear_220_2254)"/>
<path d="M176.306 78.5945L193.424 71.4254L180.995 92.9517L176.306 78.5945Z" fill="url(#paint17_linear_220_2254)"/>
<rect x="62" y="18.5" width="65.407" height="48.588" rx="3.48837" fill="url(#paint18_linear_220_2254)"/>
<rect x="70.5967" y="26.7225" width="41.113" height="2.99003" rx="1.49502" fill="url(#paint19_linear_220_2254)"/>
<rect x="70.5967" y="35.3188" width="19.4352" height="2.99003" rx="1.49502" fill="#EEF1F5"/>
<path d="M93.0215 43.666C93.0215 41.7394 94.5833 40.1776 96.5099 40.1776H154.94C156.867 40.1776 158.428 41.7394 158.428 43.666V85.2773C158.428 87.2038 156.867 88.7656 154.94 88.7656H154.341L148.358 94.7901C148.244 94.9054 148.057 94.9045 147.944 94.7882L142.077 88.7656H125.725H96.5099C94.5833 88.7656 93.0215 87.2039 93.0215 85.2773V43.666Z" fill="url(#paint20_linear_220_2254)"/>
<rect x="113.204" y="51.764" width="41.113" height="2.99003" rx="1.49502" fill="url(#paint21_linear_220_2254)"/>
<rect x="121.053" y="60.3605" width="32.1429" height="2.99003" rx="1.49502" fill="#EEF1F5"/>
<defs>
<filter id="filter0_i_220_2254" x="162.021" y="109.975" width="23.96" height="22.0494" filterUnits="userSpaceOnUse" color-interpolation-filters="sRGB">
<feFlood flood-opacity="0" result="BackgroundImageFix"/>
<feBlend mode="normal" in="SourceGraphic" in2="BackgroundImageFix" result="shape"/>
<feColorMatrix in="SourceAlpha" type="matrix" values="0 0 0 0 0 0 0 0 0 0 0 0 0 0 0 0 0 0 127 0" result="hardAlpha"/>
<feOffset dx="1" dy="1"/>
<feGaussianBlur stdDeviation="0.5"/>
<feComposite in2="hardAlpha" operator="arithmetic" k2="-1" k3="1"/>
<feColorMatrix type="matrix" values="0 0 0 0 0.831373 0 0 0 0 0.854902 0 0 0 0 0.905882 0 0 0 1 0"/>
<feBlend mode="normal" in2="shape" result="effect1_innerShadow_220_2254"/>
</filter>
<filter id="filter1_i_220_2254" x="89" y="103" width="16" height="16" filterUnits="userSpaceOnUse" color-interpolation-filters="sRGB">
<feFlood flood-opacity="0" result="BackgroundImageFix"/>
<feBlend mode="normal" in="SourceGraphic" in2="BackgroundImageFix" result="shape"/>
<feColorMatrix in="SourceAlpha" type="matrix" values="0 0 0 0 0 0 0 0 0 0 0 0 0 0 0 0 0 0 127 0" result="hardAlpha"/>
<feOffset dy="1"/>
<feGaussianBlur stdDeviation="0.5"/>
<feComposite in2="hardAlpha" operator="arithmetic" k2="-1" k3="1"/>
<feColorMatrix type="matrix" values="0 0 0 0 0.831373 0 0 0 0 0.854902 0 0 0 0 0.905882 0 0 0 1 0"/>
<feBlend mode="normal" in2="shape" result="effect1_innerShadow_220_2254"/>
</filter>
<filter id="filter2_i_220_2254" x="27.7949" y="105.057" width="25.6318" height="28.4274" filterUnits="userSpaceOnUse" color-interpolation-filters="sRGB">
<feFlood flood-opacity="0" result="BackgroundImageFix"/>
<feBlend mode="normal" in="SourceGraphic" in2="BackgroundImageFix" result="shape"/>
<feColorMatrix in="SourceAlpha" type="matrix" values="0 0 0 0 0 0 0 0 0 0 0 0 0 0 0 0 0 0 127 0" result="hardAlpha"/>
<feOffset dy="1"/>
<feGaussianBlur stdDeviation="0.5"/>
<feComposite in2="hardAlpha" operator="arithmetic" k2="-1" k3="1"/>
<feColorMatrix type="matrix" values="0 0 0 0 0.831373 0 0 0 0 0.854902 0 0 0 0 0.905882 0 0 0 1 0"/>
<feBlend mode="normal" in2="shape" result="effect1_innerShadow_220_2254"/>
</filter>
<filter id="filter3_i_220_2254" x="127" y="126" width="9" height="11" filterUnits="userSpaceOnUse" color-interpolation-filters="sRGB">
<feFlood flood-opacity="0" result="BackgroundImageFix"/>
<feBlend mode="normal" in="SourceGraphic" in2="BackgroundImageFix" result="shape"/>
<feColorMatrix in="SourceAlpha" type="matrix" values="0 0 0 0 0 0 0 0 0 0 0 0 0 0 0 0 0 0 127 0" result="hardAlpha"/>
<feOffset dy="1"/>
<feGaussianBlur stdDeviation="0.5"/>
<feComposite in2="hardAlpha" operator="arithmetic" k2="-1" k3="1"/>
<feColorMatrix type="matrix" values="0 0 0 0 0.831373 0 0 0 0 0.854902 0 0 0 0 0.905882 0 0 0 1 0"/>
<feBlend mode="normal" in2="shape" result="effect1_innerShadow_220_2254"/>
</filter>
<linearGradient id="paint0_linear_220_2254" x1="110" y1="63" x2="110" y2="146.5" gradientUnits="userSpaceOnUse">
<stop stop-color="#F2F5F8"/>
<stop offset="1" stop-color="#F2F5F8" stop-opacity="0"/>
</linearGradient>
<linearGradient id="paint1_linear_220_2254" x1="164.5" y1="114" x2="183.5" y2="125.5" gradientUnits="userSpaceOnUse">
<stop stop-color="#DEE3EE"/>
<stop offset="1" stop-color="#EBEEF5"/>
</linearGradient>
<linearGradient id="paint2_linear_220_2254" x1="90.7391" y1="105.857" x2="104.142" y2="113.758" gradientUnits="userSpaceOnUse">
<stop stop-color="#DEE3EE"/>
<stop offset="1" stop-color="#EBEEF5"/>
</linearGradient>
<linearGradient id="paint3_linear_220_2254" x1="30.5975" y1="110.271" x2="53.4264" y2="122.027" gradientUnits="userSpaceOnUse">
<stop stop-color="#DEE3EE"/>
<stop offset="1" stop-color="#EBEEF5"/>
</linearGradient>
<linearGradient id="paint4_linear_220_2254" x1="127.978" y1="127.905" x2="136.122" y2="131.955" gradientUnits="userSpaceOnUse">
<stop stop-color="#DEE3EE"/>
<stop offset="1" stop-color="#EBEEF5"/>
</linearGradient>
<linearGradient id="paint5_linear_220_2254" x1="56.2099" y1="24" x2="56.2099" y2="60.5325" gradientUnits="userSpaceOnUse">
<stop stop-color="#F0F2F7"/>
<stop offset="1" stop-color="#F0F2F7" stop-opacity="0"/>
</linearGradient>
<linearGradient id="paint6_linear_220_2254" x1="195.21" y1="0" x2="195.21" y2="42.7833" gradientUnits="userSpaceOnUse">
<stop stop-color="#F0F2F7"/>
<stop offset="1" stop-color="#F0F2F7" stop-opacity="0"/>
</linearGradient>
<linearGradient id="paint7_linear_220_2254" x1="187.63" y1="50" x2="187.63" y2="92.7833" gradientUnits="userSpaceOnUse">
<stop stop-color="#F0F2F7"/>
<stop offset="1" stop-color="#F0F2F7" stop-opacity="0"/>
</linearGradient>
<linearGradient id="paint8_linear_220_2254" x1="30.4065" y1="73.7814" x2="33.9208" y2="85.9462" gradientUnits="userSpaceOnUse">
<stop stop-color="#CFD7E9"/>
<stop offset="1" stop-color="#ECF2FC"/>
</linearGradient>
<linearGradient id="paint9_linear_220_2254" x1="34.7321" y1="75.2439" x2="35.0024" y2="84.4351" gradientUnits="userSpaceOnUse">
<stop stop-color="#DEE4EE"/>
<stop offset="1" stop-color="#EEF3FE"/>
</linearGradient>
<linearGradient id="paint10_linear_220_2254" x1="16" y1="66.2949" x2="22.5" y2="88.7949" gradientUnits="userSpaceOnUse">
<stop stop-color="#CFD7E9"/>
<stop offset="1" stop-color="#ECF2FC"/>
</linearGradient>
<linearGradient id="paint11_linear_220_2254" x1="23.9998" y1="69" x2="24.4998" y2="86" gradientUnits="userSpaceOnUse">
<stop stop-color="#DEE4EE"/>
<stop offset="1" stop-color="#EEF3FE"/>
</linearGradient>
<linearGradient id="paint12_linear_220_2254" x1="53.7479" y1="67.9401" x2="56.6317" y2="77.9222" gradientUnits="userSpaceOnUse">
<stop stop-color="#CFD7E9"/>
<stop offset="1" stop-color="#ECF2FC"/>
</linearGradient>
<linearGradient id="paint13_linear_220_2254" x1="57.2972" y1="69.1404" x2="57.5191" y2="76.6824" gradientUnits="userSpaceOnUse">
<stop stop-color="#DEE4EE"/>
<stop offset="1" stop-color="#EEF3FE"/>
</linearGradient>
<linearGradient id="paint14_linear_220_2254" x1="167.212" y1="78.7814" x2="163.697" y2="90.9464" gradientUnits="userSpaceOnUse">
<stop stop-color="#CFD7E9"/>
<stop offset="1" stop-color="#ECF2FC"/>
</linearGradient>
<linearGradient id="paint15_linear_220_2254" x1="162.886" y1="80.244" x2="162.616" y2="89.4353" gradientUnits="userSpaceOnUse">
<stop stop-color="#DEE4EE"/>
<stop offset="1" stop-color="#EEF3FE"/>
</linearGradient>
<linearGradient id="paint16_linear_220_2254" x1="193.716" y1="72.043" x2="181.12" y2="92.912" gradientUnits="userSpaceOnUse">
<stop stop-color="#CFD7E9"/>
<stop offset="1" stop-color="#ECF2FC"/>
</linearGradient>
<linearGradient id="paint17_linear_220_2254" x1="184.945" y1="72.607" x2="179.863" y2="89.563" gradientUnits="userSpaceOnUse">
<stop stop-color="#DEE4EE"/>
<stop offset="1" stop-color="#EEF3FE"/>
</linearGradient>
<linearGradient id="paint18_linear_220_2254" x1="62" y1="42.794" x2="127.407" y2="42.794" gradientUnits="userSpaceOnUse">
<stop stop-color="#D1D8E7"/>
<stop offset="1" stop-color="#EDF0F5"/>
</linearGradient>
<linearGradient id="paint19_linear_220_2254" x1="70.5967" y1="28.2176" x2="111.704" y2="28.8572" gradientUnits="userSpaceOnUse">
<stop stop-color="#E4E9F2"/>
<stop offset="1" stop-color="#EEF0F5"/>
</linearGradient>
<linearGradient id="paint20_linear_220_2254" x1="93.0215" y1="64.4716" x2="158.428" y2="64.4716" gradientUnits="userSpaceOnUse">
<stop stop-color="#D1D8E7"/>
<stop offset="1" stop-color="#EDF0F5"/>
</linearGradient>
<linearGradient id="paint21_linear_220_2254" x1="113.204" y1="53.2591" x2="154.312" y2="53.8987" gradientUnits="userSpaceOnUse">
<stop stop-color="#E4E9F2"/>
<stop offset="1" stop-color="#EEF0F5"/>
</linearGradient>
</defs>
</svg>
