<svg width="32" height="14" viewBox="0 0 32 14" fill="none" xmlns="http://www.w3.org/2000/svg">
<rect width="32" height="14" rx="2" fill="#FD3055"/>
<path d="M8.1699 4C7.7279 4 7.30948 4.10285 6.91462 4.30855C6.5217 4.50139 6.18028 4.78423 5.89036 5.15706L6.03691 4.17999H4.99691L4 10.8266H5.04L5.64162 6.81551C5.77124 6.21127 6.03759 5.73559 6.45558 5.37561C6.84371 5.04135 7.27178 4.87422 7.73978 4.87422C8.90978 4.87422 9.41137 5.51703 9.21662 6.81551L8.615 10.8266H9.655L10.2682 6.73837C10.542 4.91279 9.8339 4 8.1699 4Z" fill="white"/>
<path d="M15.638 4C14.663 4 13.8439 4.34712 13.1678 5.04135C12.4974 5.69702 12.101 6.51981 11.9545 7.49689C11.7925 8.57681 11.9512 9.42532 12.4528 10.0681C12.9323 10.6852 13.6641 11.0066 14.6261 11.0066C15.4971 11.0066 16.2506 10.7495 16.8829 10.261C17.3996 9.84957 17.7757 9.33532 18.0281 8.69251H16.9881C16.7497 9.15534 16.4767 9.50245 16.156 9.73386C15.7775 10.0038 15.3012 10.1453 14.7552 10.1453C14.1182 10.1453 13.6421 9.93956 13.3398 9.52817C13.0375 9.11677 12.9293 8.53824 12.9891 7.79258H18.2931C18.4407 6.63552 18.3176 5.72273 17.92 5.07992C17.482 4.35997 16.717 4 15.638 4ZM15.5348 4.86137C16.8088 4.86137 17.4177 5.56846 17.3337 6.99549H13.1347C13.298 6.33983 13.5831 5.82558 14.005 5.43989C14.4268 5.05421 14.9368 4.86137 15.5348 4.86137Z" fill="white"/>
<path d="M19.8952 4.17999L21.1863 10.8266H22.1613L24.5495 5.47846L25.3073 10.8266H26.2953L29.5802 4.17999H28.4362L25.9773 9.56673L25.2252 4.17999H24.2502L21.8823 9.56673L21.0392 4.17999H19.8952Z" fill="white"/>
</svg>
