<svg width="16" height="16" viewBox="0 0 16 16" fill="none" xmlns="http://www.w3.org/2000/svg">
<rect opacity="0.01" width="16" height="16" fill="black"/>
<path fill-rule="evenodd" clip-rule="evenodd" d="M0.989258 7.98975C0.989258 4.12375 4.12326 0.989746 7.98926 0.989746C11.8553 0.989746 14.9893 4.12375 14.9893 7.98975C14.9893 11.8557 11.8553 14.9897 7.98926 14.9897C4.12326 14.9897 0.989258 11.8557 0.989258 7.98975ZM10.3244 2.46084C9.58535 2.14825 8.7997 1.98975 7.98926 1.98975C7.17882 1.98975 6.39316 2.14825 5.65409 2.46084C4.93973 2.763 4.29796 3.19575 3.74662 3.74711C3.19526 4.29845 2.76249 4.94021 2.46035 5.65457C2.14776 6.39365 1.98926 7.17931 1.98926 7.98975C1.98926 8.80018 2.14776 9.58586 2.46035 10.3249C2.76251 11.0393 3.19526 11.681 3.74662 12.2324C4.29796 12.7837 4.93973 13.2165 5.65409 13.5187C6.39316 13.8312 7.17882 13.9897 7.98926 13.9897C8.7997 13.9897 9.58537 13.8312 10.3244 13.5187C11.0388 13.2165 11.6806 12.7837 12.2319 12.2324C12.7833 11.681 13.216 11.0393 13.5182 10.3249C13.8308 9.58584 13.9893 8.80018 13.9893 7.98975C13.9893 7.17931 13.8308 6.39364 13.5182 5.65457C13.216 4.94021 12.7833 4.29845 12.2319 3.74711C11.6806 3.19575 11.0388 2.76298 10.3244 2.46084ZM8.48927 9.00017H7.48926L7.00104 3.99943H9.00143L8.48927 9.00017ZM8.00098 11.6089C7.6558 11.6089 7.37598 11.3291 7.37598 10.9839C7.37598 10.6387 7.6558 10.3589 8.00098 10.3589C8.34615 10.3589 8.62598 10.6387 8.62598 10.9839C8.62598 11.3291 8.34615 11.6089 8.00098 11.6089Z" fill="#010101"/>
</svg>
