<svg width="56" height="56" viewBox="0 0 56 56" fill="none" xmlns="http://www.w3.org/2000/svg">
<g filter="url(#filter0_d_46_2485)">
<circle cx="28" cy="24" r="18" fill="white"/>
<circle cx="28" cy="24" r="17.75" stroke="#EBEDEF" stroke-width="0.5"/>
</g>
<path d="M33.7755 28.514C33.7755 28.514 33.0031 29.2727 32.8138 29.4951C32.5054 29.8242 32.1421 29.9796 31.6658 29.9796C31.62 29.9796 31.5712 29.9796 31.5254 29.9765C30.6186 29.9186 29.7759 29.5652 29.144 29.2635C27.4159 28.4287 25.8985 27.2435 24.6375 25.7413C23.5964 24.4891 22.9003 23.3312 22.4393 22.0881C22.1553 21.3294 22.0515 20.7383 22.0973 20.1808C22.1279 19.8243 22.2652 19.5287 22.5187 19.2758L23.5598 18.2368C23.7094 18.0967 23.8681 18.0205 24.0238 18.0205C24.2162 18.0205 24.3719 18.1363 24.4696 18.2338C24.4727 18.2368 24.4757 18.2399 24.4788 18.2429C24.665 18.4166 24.8421 18.5964 25.0283 18.7883C25.123 18.8858 25.2207 18.9833 25.3184 19.0839L26.1519 19.9157C26.4755 20.2386 26.4755 20.5372 26.1519 20.8602C26.0633 20.9486 25.9779 21.0369 25.8893 21.1222C25.6328 21.3843 25.8343 21.1832 25.5687 21.4209C25.5626 21.427 25.5565 21.43 25.5534 21.4361C25.2909 21.6981 25.3397 21.9541 25.3947 22.1278C25.3977 22.1369 25.4008 22.146 25.4038 22.1552C25.6206 22.6792 25.9259 23.1728 26.39 23.7609L26.393 23.7639C27.2357 24.7999 28.1242 25.6073 29.1042 26.2258C29.2294 26.305 29.3576 26.369 29.4798 26.43C29.5897 26.4848 29.6935 26.5366 29.782 26.5915C29.7942 26.5976 29.8064 26.6067 29.8187 26.6128C29.9225 26.6646 30.0202 26.689 30.1209 26.689C30.3743 26.689 30.5331 26.5305 30.585 26.4787L31.1834 25.8815C31.2872 25.7779 31.4521 25.653 31.6445 25.653C31.8338 25.653 31.9895 25.7718 32.0841 25.8754C32.0872 25.8784 32.0872 25.8784 32.0902 25.8815L33.7725 27.5603C34.087 27.8711 33.7755 28.514 33.7755 28.514Z" fill="#1979FF"/>
<defs>
<filter id="filter0_d_46_2485" x="0.639999" y="0.8" width="54.72" height="54.72" filterUnits="userSpaceOnUse" color-interpolation-filters="sRGB">
<feFlood flood-opacity="0" result="BackgroundImageFix"/>
<feColorMatrix in="SourceAlpha" type="matrix" values="0 0 0 0 0 0 0 0 0 0 0 0 0 0 0 0 0 0 127 0" result="hardAlpha"/>
<feOffset dy="4.16"/>
<feGaussianBlur stdDeviation="4.68"/>
<feColorMatrix type="matrix" values="0 0 0 0 0.956863 0 0 0 0 0.956863 0 0 0 0 0.956863 0 0 0 1 0"/>
<feBlend mode="normal" in2="BackgroundImageFix" result="effect1_dropShadow_46_2485"/>
<feBlend mode="normal" in="SourceGraphic" in2="effect1_dropShadow_46_2485" result="shape"/>
</filter>
</defs>
</svg>
