<svg width="18" height="18" viewBox="0 0 18 18" fill="none" xmlns="http://www.w3.org/2000/svg">
<g clip-path="url(#clip0_220_2121)">
<path d="M5.62505 5.3943C7.17208 6.00008 9.00317 6.00008 9.00317 6.00008C9.00317 6.00008 10.8301 6.00008 12.3751 5.3943C14.0632 7.36448 15.2462 9.96173 16.0237 12.1491C16.8108 14.3636 15.0753 16.5001 12.7251 16.5001H5.25744C2.91312 16.5001 1.17975 14.3734 1.96291 12.1637C2.73677 9.98025 3.9206 7.3821 5.62505 5.3943Z" stroke="white" stroke-width="1.5"/>
<path d="M6.75 10.5H11.25" stroke="white" stroke-width="1.5"/>
<path d="M6.75 12.75H11.25" stroke="white" stroke-width="1.5"/>
<path d="M9.0033 10.5V14.25" stroke="white" stroke-width="1.5"/>
<path d="M11.25 8.25L9 10.5L6.75 8.25" stroke="white" stroke-width="1.5"/>
<path fill-rule="evenodd" clip-rule="evenodd" d="M9 6C11.6924 6 13.875 4.99264 13.875 3.75C13.875 2.50736 11.6924 1.5 9 1.5C6.30761 1.5 4.125 2.50736 4.125 3.75C4.125 4.99264 6.30761 6 9 6Z" stroke="white" stroke-width="1.5" stroke-linecap="round"/>
</g>
<defs>
<clipPath id="clip0_220_2121">
<rect width="18" height="18" fill="white"/>
</clipPath>
</defs>
</svg>
