<svg width="18" height="18" viewBox="0 0 18 18" fill="none" xmlns="http://www.w3.org/2000/svg">
<g clip-path="url(#clip0_220_2107)">
<path fill-rule="evenodd" clip-rule="evenodd" d="M7.5 9.74998H6.75V11.25V14.625H3.375V11.25V9.74998H2.625C2.21079 9.74998 1.875 4.49998 1.875 10.5V15.375C1.875 15.7892 2.21079 16.125 2.625 16.125H7.5C7.91421 16.125 8.25 15.7892 8.25 15.375V10.5C8.25 7.87498 8.05544 9.91483 7.77982 9.80393M7.5 9.74998C7.5 9.37498 7.69336 9.77361 7.77982 9.80393ZM9.75 2.62498C9.75 2.21077 10.0858 1.87498 10.5 1.87498H15.375C15.7892 1.87498 16.125 2.21077 16.125 2.62498V7.49998C16.125 7.9142 15.7892 8.24998 15.375 8.24998H10.5C10.0858 8.24998 9.75 7.9142 9.75 7.49998V2.62498ZM11.25 3.37498V6.74998H14.625V3.37498H11.25ZM9.75 10.5C9.75 10.0858 10.0858 9.74998 10.5 9.74998H15.375C15.7892 9.74998 16.125 10.0858 16.125 10.5V15.375C16.125 15.7892 15.7892 16.125 15.375 16.125H10.5C10.0858 16.125 9.75 15.7892 9.75 15.375V10.5ZM11.25 11.25V14.625H14.625V11.25H11.25Z" fill="white"/>
<path d="M2.625 1.87498C2.21079 1.87498 1.875 2.21077 1.875 2.62498V8.99998C1.875 9.4142 2.21079 9.74998 2.625 9.74998H3.375V3.37498H6.75V9.74998H7.5C7.59891 9.74998 7.5 10.125 7.77982 9.80393C7.875 10.5 8.25 10.875 8.25 10.5597V2.62498C8.25 2.21077 7.91421 1.87498 7.5 1.87498H2.625Z" fill="white"/>
</g>
<defs>
<clipPath id="clip0_220_2107">
<rect width="18" height="18" fill="white"/>
</clipPath>
</defs>
</svg>
