<svg width="28" height="18" viewBox="0 0 28 18" fill="none" xmlns="http://www.w3.org/2000/svg">
<path d="M1 8.82103C0.585786 8.82103 0.25 9.15681 0.25 9.57103C0.25 9.98524 0.585786 10.321 1 10.321V8.82103ZM7.5 9.57103V10.321C7.74028 10.321 7.96601 10.2059 8.1071 10.0114L7.5 9.57103ZM10.8157 5L11.4079 4.53975C11.2631 4.35349 11.0392 4.24619 10.8033 4.2501C10.5674 4.25401 10.3471 4.36867 10.2086 4.55962L10.8157 5ZM17.0335 13L16.4413 13.4602C16.5731 13.6298 16.7712 13.7347 16.9855 13.7485C17.1998 13.7622 17.4098 13.6834 17.5621 13.532L17.0335 13ZM20.4842 9.57103V8.82103C20.2862 8.82103 20.0961 8.89939 19.9556 9.03902L20.4842 9.57103ZM1 10.321H7.5V8.82103H1V10.321ZM8.1071 10.0114L11.4228 5.44038L10.2086 4.55962L6.8929 9.13065L8.1071 10.0114ZM10.2235 5.46025L16.4413 13.4602L17.6256 12.5398L11.4079 4.53975L10.2235 5.46025ZM17.5621 13.532L21.0129 10.103L19.9556 9.03902L16.5048 12.468L17.5621 13.532ZM20.4842 10.321H27V8.82103H20.4842V10.321Z" fill="url(#paint0_linear_275_2059)"/>
<defs>
<linearGradient id="paint0_linear_275_2059" x1="27" y1="9.8" x2="0.458467" y2="9.79999" gradientUnits="userSpaceOnUse">
<stop stop-color="white" stop-opacity="0"/>
<stop offset="0.5" stop-color="white"/>
<stop offset="1" stop-color="white" stop-opacity="0"/>
</linearGradient>
</defs>
</svg>
