<svg width="24" height="24" viewBox="0 0 24 24" fill="none" xmlns="http://www.w3.org/2000/svg">
<g clip-path="url(#clip0_220_2162)">
<path d="M19.5 3H4.5C3.67158 3 3 3.67158 3 4.5V19.5C3 20.3285 3.67158 21 4.5 21H19.5C20.3285 21 21 20.3285 21 19.5V4.5C21 3.67158 20.3285 3 19.5 3Z" stroke="white" stroke-width="1.5" stroke-linecap="round"/>
<path d="M19.0001 14.4H5.0001C4.2269 14.4 3.6001 14.6686 3.6001 15V21C3.6001 21.3314 4.2269 21.6 5.0001 21.6H19.0001C19.7733 21.6 20.4001 21.3314 20.4001 21V15C20.4001 14.6686 19.7733 14.4 19.0001 14.4Z" fill="white"/>
<path d="M21 15.8L15.5 10.8L10.5 15.3L7 12.3L3 15.3" fill="white"/>
<path d="M21 15.8L15.5 10.8L10.5 15.3L7 12.3L3 15.3" stroke="white" stroke-width="1.5" stroke-linecap="round"/>
</g>
<defs>
<clipPath id="clip0_220_2162">
<rect width="24" height="24" fill="white"/>
</clipPath>
</defs>
</svg>
