<svg width="20" height="19" viewBox="0 0 20 19" fill="none" xmlns="http://www.w3.org/2000/svg">
<g clip-path="url(#clip0_220_2112)">
<path fill-rule="evenodd" clip-rule="evenodd" d="M5.13884 8.61131C5.12905 5.81549 7.32296 3.5757 9.99708 3.56634C12.6712 3.55698 14.8807 5.78135 14.8905 8.57717C14.8926 9.18076 14.6196 9.97336 14.1148 10.8844C13.6202 11.7771 12.95 12.7011 12.2644 13.5454C11.581 14.3869 10.8953 15.1335 10.3794 15.6705C10.2557 15.7993 10.142 15.9158 10.0407 16.0184C9.93865 15.9165 9.82412 15.8008 9.69952 15.6729C9.17987 15.1395 8.48894 14.3978 7.79971 13.561C7.1082 12.7215 6.43154 11.8022 5.93069 10.9131C5.41949 10.0056 5.14095 9.2149 5.13884 8.61131ZM9.53253 17.6171C9.53265 17.6172 9.53275 17.6173 10.0443 17.0687C10.5598 17.6137 10.5599 17.6136 10.56 17.6135L10.048 18.0977L9.53253 17.6171ZM9.53253 17.6171L10.0443 17.0687L10.56 17.6135L10.5614 17.6121L10.5651 17.6086L10.5785 17.5959C10.59 17.5849 10.6067 17.5689 10.6281 17.5482C10.6711 17.5068 10.7333 17.4463 10.8121 17.3686C10.9695 17.2133 11.1933 16.9889 11.4613 16.7099C11.9964 16.1529 12.7119 15.3743 13.429 14.4912C14.1439 13.6108 14.8734 12.6108 15.4271 11.6116C15.9705 10.6308 16.3943 9.56389 16.3908 8.57192C16.3782 4.9855 13.532 2.05368 9.99183 2.06607C6.45167 2.07847 3.62602 5.03014 3.63857 8.61656C3.64205 9.60853 4.07325 10.6725 4.62353 11.6494C5.18416 12.6447 5.92072 13.6396 6.64172 14.5149C7.36501 15.393 8.0859 16.1666 8.62493 16.7198C8.89486 16.9969 9.12019 17.2198 9.27874 17.374C9.35803 17.4511 9.42068 17.5111 9.46393 17.5523L9.48623 17.5735L9.51391 17.5996L9.52735 17.6122L9.53108 17.6157L9.53253 17.6171ZM8.88764 8.07106C8.88547 7.44963 9.38747 6.9441 10.0089 6.94192C10.6303 6.93975 11.1359 7.44175 11.138 8.06318C11.1402 8.68461 10.6382 9.19014 10.0168 9.19232C9.39535 9.19449 8.88982 8.69249 8.88764 8.07106ZM10.0036 5.44166C8.55365 5.44674 7.38231 6.62631 7.38738 8.07631C7.39246 9.52631 8.57203 10.6977 10.022 10.6926C11.472 10.6875 12.6434 9.50793 12.6383 8.05793C12.6332 6.60793 11.4536 5.43659 10.0036 5.44166Z" fill="white"/>
</g>
<defs>
<clipPath id="clip0_220_2112">
<rect width="18.0032" height="18.0032" fill="white" transform="translate(0.986328 0.972382) rotate(-0.200559)"/>
</clipPath>
</defs>
</svg>
