<svg width="16" height="16" viewBox="0 0 16 16" fill="none" xmlns="http://www.w3.org/2000/svg">
<g clip-path="url(#clip0_243_2057)">
<path fill-rule="evenodd" clip-rule="evenodd" d="M2.66634 7.99992C2.66634 5.0544 5.05416 2.66659 7.99967 2.66659C10.9452 2.66659 13.333 5.0544 13.333 7.99992C13.333 10.9454 10.9452 13.3333 7.99967 13.3333C5.05416 13.3333 2.66634 10.9454 2.66634 7.99992ZM7.99967 1.33325C4.31778 1.33325 1.33301 4.31802 1.33301 7.99992C1.33301 11.6818 4.31778 14.6666 7.99967 14.6666C11.6816 14.6666 14.6663 11.6818 14.6663 7.99992C14.6663 4.31802 11.6816 1.33325 7.99967 1.33325ZM7.3277 6.06048C7.21172 5.9803 7.06841 5.97973 6.95198 6.05899C6.83554 6.13825 6.76375 6.28524 6.76375 6.44438V9.5555C6.76375 9.71463 6.83554 9.86163 6.95198 9.94089C7.06841 10.0202 7.21172 10.0196 7.3277 9.9394L9.5777 8.38384C9.69291 8.30419 9.76375 8.15801 9.76375 7.99994C9.76375 7.84187 9.69291 7.69569 9.5777 7.61604L7.3277 6.06048Z" fill="white"/>
</g>
<defs>
<clipPath id="clip0_243_2057">
<rect width="16" height="16" fill="white"/>
</clipPath>
</defs>
</svg>
