<svg width="20" height="20" viewBox="0 0 20 20" fill="none" xmlns="http://www.w3.org/2000/svg">
<g clip-path="url(#clip0_243_2054)">
<path d="M7.30546 4.5725C7.24245 4.53239 7.16983 4.50996 7.09518 4.50754C7.02054 4.50513 6.94662 4.52282 6.88115 4.55877C6.81569 4.59471 6.76109 4.6476 6.72307 4.71188C6.68505 4.77616 6.66501 4.84948 6.66504 4.92416V15.0729C6.66508 15.1476 6.68518 15.2208 6.72323 15.2851C6.76128 15.3493 6.81588 15.4021 6.88133 15.438C6.94679 15.4739 7.02068 15.4916 7.09529 15.4891C7.1699 15.4867 7.24248 15.4643 7.30546 15.4242L15.2792 10.35C15.3384 10.3124 15.3871 10.2604 15.4209 10.199C15.4547 10.1375 15.4724 10.0685 15.4724 9.99833C15.4724 9.92819 15.4547 9.85919 15.4209 9.79771C15.3871 9.73624 15.3384 9.68428 15.2792 9.64667L7.30546 4.5725Z" fill="white"/>
</g>
<defs>
<clipPath id="clip0_243_2054">
<rect width="20" height="20" fill="white"/>
</clipPath>
</defs>
</svg>
