<svg width="16" height="16" viewBox="0 0 16 16" fill="none" xmlns="http://www.w3.org/2000/svg">
<path fill-rule="evenodd" clip-rule="evenodd" d="M6 5H10C10.55 5 11 5.45 11 6V10C11 10.55 10.55 11 10 11H6C5.45 11 5 10.55 5 10V6C5 5.45 5.45 5 6 5Z" fill="#F8D58F"/>
<path fill-rule="evenodd" clip-rule="evenodd" d="M4 2H12C13.1 2 14 2.9 14 4V12C14 13.1 13.1 14 12 14H4C2.9 14 2 13.1 2 12V4C2 2.9 2.9 2 4 2ZM12 13C12.55 13 13 12.55 13 12V4C13 3.45 12.55 3 12 3H4C3.45 3 3 3.45 3 4V12C3 12.55 3.45 13 4 13H12Z" fill="#F8D58F"/>
</svg>
