<svg width="14" height="14" viewBox="0 0 14 14" fill="none" xmlns="http://www.w3.org/2000/svg">
<g clip-path="url(#clip0_229_2413)">
<path d="M2.48439 9.67959C1.83211 8.58 1.60368 7.28012 1.84198 6.02403C2.08029 4.76794 2.76894 3.64205 3.77862 2.85778C4.78831 2.07351 6.04957 1.6848 7.32557 1.76465C8.60156 1.84449 9.80453 2.38741 10.7086 3.29144C11.6126 4.19547 12.1555 5.39843 12.2354 6.67442C12.3152 7.95042 11.9265 9.21168 11.1422 10.2214C10.358 11.2311 9.23209 11.9197 7.97601 12.158C6.71992 12.3963 5.42004 12.1679 4.32045 11.5156L4.32046 11.5156L2.50721 12.0337C2.43219 12.0551 2.35281 12.0561 2.27728 12.0365C2.20175 12.0169 2.13283 11.9775 2.07766 11.9224C2.02249 11.8672 1.98308 11.7983 1.96351 11.7227C1.94394 11.6472 1.94492 11.5678 1.96635 11.4928L2.48443 9.67955L2.48439 9.67959Z" stroke="black" stroke-opacity="0.4" stroke-linecap="round" stroke-linejoin="round"/>
<path d="M7 7.65625C7.36244 7.65625 7.65625 7.36244 7.65625 7C7.65625 6.63756 7.36244 6.34375 7 6.34375C6.63756 6.34375 6.34375 6.63756 6.34375 7C6.34375 7.36244 6.63756 7.65625 7 7.65625Z" fill="black" fill-opacity="0.4"/>
<path d="M4.375 7.65625C4.73744 7.65625 5.03125 7.36244 5.03125 7C5.03125 6.63756 4.73744 6.34375 4.375 6.34375C4.01256 6.34375 3.71875 6.63756 3.71875 7C3.71875 7.36244 4.01256 7.65625 4.375 7.65625Z" fill="black" fill-opacity="0.4"/>
<path d="M9.625 7.65625C9.98744 7.65625 10.2812 7.36244 10.2812 7C10.2812 6.63756 9.98744 6.34375 9.625 6.34375C9.26256 6.34375 8.96875 6.63756 8.96875 7C8.96875 7.36244 9.26256 7.65625 9.625 7.65625Z" fill="black" fill-opacity="0.4"/>
</g>
<defs>
<clipPath id="clip0_229_2413">
<rect width="14" height="14" fill="white"/>
</clipPath>
</defs>
</svg>
