<svg width="14" height="14" viewBox="0 0 14 14" fill="none" xmlns="http://www.w3.org/2000/svg">
<path d="M7 11.8125C7 11.8125 1.53125 8.75 1.53125 5.03125C1.53136 4.37398 1.75911 3.73704 2.17577 3.22871C2.59243 2.72038 3.17228 2.37204 3.81674 2.24293C4.46121 2.11381 5.1305 2.21188 5.71083 2.52046C6.29115 2.82904 6.7467 3.32909 7 3.93559L6.99999 3.93559C7.2533 3.3291 7.70884 2.82905 8.28917 2.52046C8.8695 2.21188 9.53879 2.11381 10.1833 2.24293C10.8277 2.37204 11.4076 2.72038 11.8242 3.22871C12.2409 3.73704 12.4686 4.37398 12.4688 5.03125C12.4688 8.75 7 11.8125 7 11.8125Z" stroke="black" stroke-opacity="0.4" stroke-linecap="round" stroke-linejoin="round"/>
</svg>
