<svg width="14" height="15" viewBox="0 0 14 15" fill="none" xmlns="http://www.w3.org/2000/svg">
<path d="M7 7.95749C7.9665 7.95749 8.75 7.17399 8.75 6.20749C8.75 5.24099 7.9665 4.45749 7 4.45749C6.0335 4.45749 5.25 5.24099 5.25 6.20749C5.25 7.17399 6.0335 7.95749 7 7.95749Z" stroke="#999999" stroke-width="1.04" stroke-linecap="round" stroke-linejoin="round"/>
<path d="M11.375 6.20749C11.375 10.145 7 13.2075 7 13.2075C7 13.2075 2.625 10.145 2.625 6.20749C2.625 5.04717 3.08594 3.93437 3.90641 3.1139C4.72688 2.29343 5.83968 1.83249 7 1.83249C8.16032 1.83249 9.27312 2.29343 10.0936 3.1139C10.9141 3.93437 11.375 5.04717 11.375 6.20749V6.20749Z" stroke="#999999" stroke-width="1.04" stroke-linecap="round" stroke-linejoin="round"/>
</svg>
