<svg width="16" height="16" viewBox="0 0 16 16" fill="none" xmlns="http://www.w3.org/2000/svg">
<g clip-path="url(#clip0_305_2100)">
<path fill-rule="evenodd" clip-rule="evenodd" d="M1 1H5.33988L6.14534 5.02734L4.44521 6.72748C5.10437 9.0581 6.9419 10.8956 9.27252 11.5548L10.9727 9.85466L15 10.6601V15H11.1818C5.55856 15 1 10.4414 1 4.81818V1ZM2.27273 2.27273V4.81818C2.27273 9.73854 6.26146 13.7273 11.1818 13.7273H13.7273V11.7035L11.391 11.2363L9.66712 12.9601L9.32383 12.8813C6.24627 12.1748 3.8252 9.75373 3.1187 6.67617L3.0399 6.33288L4.76375 4.60903L4.29649 2.27273H2.27273Z" fill="white"/>
</g>
<defs>
<clipPath id="clip0_305_2100">
<rect width="16" height="16" fill="white"/>
</clipPath>
</defs>
</svg>
