<svg width="48" height="48" viewBox="0 0 48 48" fill="none" xmlns="http://www.w3.org/2000/svg">
<g clip-path="url(#clip0_220_2228)">
<path fill-rule="evenodd" clip-rule="evenodd" d="M4 24C4 12.9543 12.9543 4 24 4C35.0457 4 44 12.9543 44 24C44 35.0457 35.0457 44 24 44C12.9543 44 4 35.0457 4 24Z" fill="white"/>
<path fill-rule="evenodd" clip-rule="evenodd" d="M20.8567 18.1772C21.206 17.9394 21.6359 17.9411 21.9838 18.1817L28.7338 22.8484C29.0795 23.0873 29.292 23.5258 29.292 24.0001C29.292 24.4743 29.0795 24.9128 28.7338 25.1518L21.9838 29.8184C21.6359 30.059 21.206 30.0607 20.8567 29.8229C20.5074 29.5851 20.292 29.1441 20.292 28.6667V19.3334C20.292 18.856 20.5074 18.415 20.8567 18.1772Z" fill="#1A1A1A"/>
</g>
<defs>
<clipPath id="clip0_220_2228">
<rect width="48" height="48" fill="white"/>
</clipPath>
</defs>
</svg>
