<svg width="16" height="16" viewBox="0 0 16 16" fill="none" xmlns="http://www.w3.org/2000/svg">
<rect opacity="0.01" width="16" height="16" fill="black"/>
<path fill-rule="evenodd" clip-rule="evenodd" d="M1.00488 7.99541C1.00488 4.13135 4.1377 0.998535 8.00176 0.998535C11.8658 0.998535 14.9986 4.13135 14.9986 7.99541C14.9986 11.8595 11.8658 14.9923 8.00176 14.9923C4.1377 14.9923 1.00488 11.8595 1.00488 7.99541ZM10.3721 2.38291C9.62207 2.06572 8.8252 1.90479 8.00176 1.90479C7.17832 1.90479 6.38145 2.06572 5.62988 2.38291C4.90488 2.69072 4.25332 3.12979 3.69395 3.68916C3.13301 4.24854 2.69395 4.9001 2.3877 5.6251C2.07051 6.3751 1.91113 7.17353 1.91113 7.99541C1.91113 8.81729 2.07207 9.61572 2.38926 10.3657C2.69707 11.0907 3.13613 11.7423 3.69551 12.3017C4.25488 12.8626 4.90645 13.3017 5.63145 13.6079C6.38145 13.9251 7.17988 14.086 8.00176 14.086C8.82363 14.086 9.62207 13.9251 10.3721 13.6079C11.0971 13.3001 11.7486 12.861 12.308 12.3017C12.8689 11.7423 13.308 11.0907 13.6143 10.3657C13.9314 9.61572 14.0924 8.81729 14.0924 7.99541C14.0924 7.17353 13.9314 6.3751 13.6143 5.6251C13.3064 4.9001 12.8674 4.24854 12.308 3.68916C11.7486 3.12822 11.0971 2.68916 10.3721 2.38291Z" fill="#F8D58F"/>
<path d="M4.87695 7.99512C4.87695 9.72101 6.27606 11.1201 8.00195 11.1201C9.72784 11.1201 11.127 9.72101 11.127 7.99512C11.127 6.26923 9.72784 4.87012 8.00195 4.87012C6.27606 4.87012 4.87695 6.26923 4.87695 7.99512Z" fill="#F8D58F"/>
</svg>
