<svg width="76" height="76" viewBox="0 0 76 76" fill="none" xmlns="http://www.w3.org/2000/svg">
<circle cx="38" cy="38" r="38" fill="white"/>
<path d="M44.8203 32.5508C44.9961 32.5508 45.1719 32.5547 45.3438 32.5625C44.4258 27.6133 39.2578 23.8203 33.0195 23.8203C26.1328 23.8203 20.5508 28.4414 20.5508 34.1406C20.5508 37.4844 22.4688 40.4531 25.4453 42.3398C25.4844 42.3633 25.5586 42.4102 25.5586 42.4102L24.3516 46.1445L28.8594 43.8711L29.0703 43.9297C30.3086 44.2695 31.6367 44.457 33.0156 44.457C33.2969 44.457 33.5742 44.4453 33.8516 44.4336C33.5977 43.6484 33.457 42.8242 33.457 41.9727C33.4609 36.7695 38.5508 32.5508 44.8203 32.5508ZM37.3594 28.9102C38.3281 28.9102 39.1094 29.6602 39.1094 30.5898C39.1094 31.5156 38.3281 32.2695 37.3594 32.2695C36.3906 32.2695 35.6094 31.5156 35.6094 30.5898C35.6094 29.6602 36.3906 28.9102 37.3594 28.9102ZM28.6797 32.2656C27.7148 32.2656 26.9297 31.5117 26.9297 30.5859C26.9297 29.6602 27.7148 28.9063 28.6797 28.9063C29.6484 28.9063 30.4336 29.6563 30.4336 30.5859C30.4336 31.5117 29.6484 32.2656 28.6797 32.2656ZM55.4492 42.0352C55.4492 37.2187 50.7344 33.3164 44.918 33.3164C39.0977 33.3164 34.3828 37.2187 34.3828 42.0352C34.3828 46.8516 39.1016 50.7539 44.918 50.7539C46.082 50.7539 47.2031 50.5977 48.25 50.3086C48.3086 50.293 48.4297 50.2578 48.4297 50.2578L52.2344 52.1797L51.2188 49.0234C51.2188 49.0234 51.2852 48.9844 51.3164 48.9648C53.8281 47.3711 55.4492 44.8594 55.4492 42.0352ZM41.25 40.4492C40.4336 40.4492 39.7695 39.8125 39.7695 39.0313C39.7695 38.25 40.4297 37.6172 41.25 37.6172C42.0664 37.6172 42.7305 38.25 42.7305 39.0313C42.7305 39.8164 42.0664 40.4492 41.25 40.4492ZM48.5781 40.4492C47.7617 40.4492 47.1016 39.8125 47.1016 39.0313C47.1016 38.25 47.7617 37.6172 48.5781 37.6172C49.3984 37.6172 50.0586 38.25 50.0586 39.0313C50.0586 39.8164 49.3984 40.4492 48.5781 40.4492Z" fill="#57BE6A"/>
</svg>
