<svg width="366" height="211" viewBox="0 0 366 211" fill="none" xmlns="http://www.w3.org/2000/svg">
<rect width="366" height="211" fill="#2C2C33"/>
<path opacity="0.0963091" fill-rule="evenodd" clip-rule="evenodd" d="M150 60C141.75 60 135 66.75 135 75C135 83.25 141.75 90 150 90C158.25 90 165 83.25 165 75C165 66.75 158.25 60 150 60ZM179.482 92.4568C177.572 89.0866 172.72 89.0753 170.794 92.4365L159.289 112.514C157.379 115.847 159.786 120 163.628 120H226.377C230.218 120 232.625 115.85 230.717 112.516L210.725 77.5842C208.804 74.2286 203.965 74.2291 202.045 77.5851L190.837 97.1772C188.913 100.541 184.059 100.532 182.148 97.16L179.482 92.4568Z" fill="white"/>
</svg>
